<?xml version="1.0" standalone="no"?>
<!DOCTYPE svg PUBLIC "-//W3C//DTD SVG 20010904//EN"
 "http://www.w3.org/TR/2001/REC-SVG-20010904/DTD/svg10.dtd">
<svg version="1.0" xmlns="http://www.w3.org/2000/svg"
 width="1024.000000pt" height="1024.000000pt" viewBox="0 0 1024.000000 1024.000000"
 preserveAspectRatio="xMidYMid meet">

<g transform="translate(0.000000,1024.000000) scale(0.100000,-0.100000)"
fill="#000000" stroke="none">
<path d="M4865 10233 c-722 -44 -1339 -206 -1966 -514 -837 -412 -1548 -1042
-2062 -1825 -140 -213 -212 -341 -328 -579 -680 -1398 -679 -2999 5 -4400 260
-534 578 -977 1006 -1405 256 -257 468 -434 745 -622 727 -494 1531 -783 2420
-870 191 -19 720 -15 920 5 1041 110 2019 533 2830 1227 162 139 456 436 589
595 697 836 1100 1794 1198 2850 17 181 16 689 -1 870 -60 645 -222 1216 -511
1800 -152 307 -290 532 -490 800 -587 783 -1367 1375 -2278 1729 -492 192
-1000 304 -1522 336 -151 9 -433 11 -555 3z m525 -893 c557 -39 1087 -183
1590 -434 855 -427 1519 -1092 1937 -1941 660 -1342 559 -2891 -274 -4159
-478 -728 -1190 -1308 -1998 -1625 -515 -203 -979 -291 -1530 -291 -556 0
-1046 94 -1560 299 -800 320 -1497 891 -1968 1611 -313 480 -539 1044 -636
1590 -48 269 -55 360 -56 720 0 342 5 429 41 658 110 704 430 1428 879 1992
853 1071 2217 1674 3575 1580z"/>
<path d="M4154 7057 c-116 -122 -579 -606 -1028 -1076 -509 -533 -816 -861
-814 -871 2 -9 464 -499 1028 -1088 l1025 -1072 743 0 c408 0 742 2 742 4 0 2
-349 361 -775 797 -426 437 -775 797 -775 801 0 5 767 8 1705 8 l1705 0 0 555
0 555 -1709 2 -1708 3 778 795 c428 437 778 798 779 803 0 4 -334 7 -742 6
l-743 0 -211 -222z"/>
</g>
</svg>
