<?xml version="1.0" encoding="UTF-8"?>
<!DOCTYPE svg PUBLIC "-//W3C//DTD SVG 1.1//EN" "http://www.w3.org/Graphics/SVG/1.1/DTD/svg11.dtd">
<svg xmlns="http://www.w3.org/2000/svg" version="1.1" width="1000px" height="1000px" style="shape-rendering:geometricPrecision; text-rendering:geometricPrecision; image-rendering:optimizeQuality; fill-rule:evenodd; clip-rule:evenodd" xmlns:xlink="http://www.w3.org/1999/xlink">
<g><path style="opacity:0.959" fill="#fefffe" d="M 652.5,66.5 C 714.726,64.1442 757.226,91.4776 780,148.5C 795.446,211.223 775.946,259.389 721.5,293C 707.697,299.712 693.197,304.212 678,306.5C 677.055,306.905 676.388,307.572 676,308.5C 670.373,336.834 664.207,365.001 657.5,393C 662.319,395.051 667.319,396.718 672.5,398C 681.604,399.526 690.604,401.526 699.5,404C 703.277,405.29 705.777,407.79 707,411.5C 707.667,418.167 707.667,424.833 707,431.5C 705.709,439.964 700.876,444.298 692.5,444.5C 687.2,444.217 682.033,443.217 677,441.5C 672.133,446.431 670.3,452.264 671.5,459C 678.994,461.202 686.328,463.702 693.5,466.5C 696.462,477.313 695.962,487.98 692,498.5C 688.913,502.792 684.746,504.458 679.5,503.5C 664.251,500.651 648.918,498.317 633.5,496.5C 630.903,512.196 622.236,523.029 607.5,529C 599.635,530.911 592.302,529.577 585.5,525C 584.421,524.044 583.255,523.211 582,522.5C 578.098,514.227 576.765,505.56 578,496.5C 579.976,489.621 581.309,482.621 582,475.5C 592.713,426.27 603.046,376.937 613,327.5C 615.318,318.223 617.818,309.056 620.5,300C 586.016,284.352 563.016,258.518 551.5,222.5C 552.693,220.616 554.359,220.116 556.5,221C 571.177,226.673 585.843,232.34 600.5,238C 607.137,258.445 621.137,267.112 642.5,264C 646.269,262.403 649.936,260.57 653.5,258.5C 655.5,255.833 657.833,253.5 660.5,251.5C 664.065,244.924 666.565,237.924 668,230.5C 681.304,220.774 694.471,210.94 707.5,201C 716.911,198.647 726.244,195.98 735.5,193C 761.181,174.245 765.347,151.412 748,124.5C 730.565,106.958 710.732,103.792 688.5,115C 685.314,118.182 681.814,121.015 678,123.5C 671.078,133.252 667.078,144.252 666,156.5C 656.188,170.318 646.354,184.151 636.5,198C 629.692,199.603 623.025,201.603 616.5,204C 614.833,204.667 613.167,204.667 611.5,204C 591.495,194.887 571.162,186.553 550.5,179C 549.426,178.261 548.759,177.261 548.5,176C 554.996,122.852 583.663,87.8521 634.5,71C 640.601,69.3822 646.601,67.8822 652.5,66.5 Z M 706.5,131.5 C 718.331,130.249 727.164,134.583 733,144.5C 737.027,155.755 734.193,164.922 724.5,172C 716.542,175.12 708.542,175.12 700.5,172C 691.506,163.885 689.173,154.051 693.5,142.5C 695.316,140.183 697.316,138.016 699.5,136C 702.239,134.974 704.572,133.474 706.5,131.5 Z"/></g>
<g><path style="opacity:0.795" fill="#fefffe" d="M 705.5,120.5 C 729.363,119.407 743.03,130.574 746.5,154C 745.251,163.16 741.585,171.16 735.5,178C 716.794,189.681 699.961,187.515 685,171.5C 674.656,147.528 681.49,130.528 705.5,120.5 Z M 706.5,131.5 C 704.572,133.474 702.239,134.974 699.5,136C 697.316,138.016 695.316,140.183 693.5,142.5C 689.173,154.051 691.506,163.885 700.5,172C 708.542,175.12 716.542,175.12 724.5,172C 734.193,164.922 737.027,155.755 733,144.5C 727.164,134.583 718.331,130.249 706.5,131.5 Z"/></g>
<g><path style="opacity:0.884" fill="#fefffe" d="M 339.5,149.5 C 345.774,149.884 350.274,152.884 353,158.5C 357.842,177.536 362.842,196.536 368,215.5C 370.134,228.033 364.967,233.2 352.5,231C 350.413,230.208 348.579,229.041 347,227.5C 344.54,218.452 341.874,209.452 339,200.5C 335.731,187.527 332.565,174.527 329.5,161.5C 330.026,158.728 330.859,156.062 332,153.5C 334.255,151.501 336.755,150.168 339.5,149.5 Z"/></g>
<g><path style="opacity:0.874" fill="#fefffe" d="M 245.5,181.5 C 251.612,181.191 256.946,183.025 261.5,187C 277.213,204.056 293.047,221.223 309,238.5C 314.255,246.291 313.088,252.791 305.5,258C 302.833,258.667 300.167,258.667 297.5,258C 294.187,256.032 290.854,254.032 287.5,252C 280.667,243.833 273.167,236.333 265,229.5C 264.667,228.5 264.333,227.5 264,226.5C 255.285,218.453 247.285,209.787 240,200.5C 238.178,196.121 238.178,191.787 240,187.5C 242.04,185.63 243.873,183.63 245.5,181.5 Z"/></g>
<g><path style="opacity:0.753" fill="#fefffe" d="M 626.5,204.5 C 654.171,204.183 665.005,217.516 659,244.5C 649.804,259.776 636.637,264.276 619.5,258C 603.846,243.719 606.18,240.719 626.5,249C 646.733,250.073 653.566,240.907 647,221.5C 645.5,220 644,218.5 642.5,217C 635.509,215.178 629.509,211.844 624.5,207C 625.056,205.989 625.722,205.156 626.5,204.5 Z"/></g>
<g><path style="opacity:0.958" fill="#fefffe" d="M 437.5,227.5 C 469.142,225.081 495.309,235.747 516,259.5C 528.588,278.719 530.588,299.052 522,320.5C 512.861,338.638 499.361,352.471 481.5,362C 500.257,363.311 517.59,358.977 533.5,349C 535.5,348.667 537.5,348.333 539.5,348C 548.258,347.809 556.924,348.475 565.5,350C 567.709,351.873 569.542,354.04 571,356.5C 571.68,371.707 572.847,386.873 574.5,402C 574.238,404.547 573.738,407.047 573,409.5C 567.879,413.273 562.712,417.106 557.5,421C 472.056,472.347 386.723,523.68 301.5,575C 298.456,576.072 295.29,576.572 292,576.5C 253.388,569.644 214.888,562.144 176.5,554C 169.833,552.333 163.167,550.667 156.5,549C 155.667,548.167 154.833,547.333 154,546.5C 148.845,528.251 144.012,509.917 139.5,491.5C 140.269,486.131 142.936,481.964 147.5,479C 158.426,473.25 169.593,468.083 181,463.5C 186.821,466.497 192.655,469.664 198.5,473C 209.496,477.056 220.829,478.39 232.5,477C 239.841,475.331 247.174,473.665 254.5,472C 211.781,468.882 180.947,448.382 162,410.5C 151.713,378.044 161.213,353.544 190.5,337C 220.487,326.619 249.487,328.953 277.5,344C 287.878,350.182 297.878,356.849 307.5,364C 312.295,368.96 317.295,373.793 322.5,378.5C 323.589,381.679 325.423,384.345 328,386.5C 330.812,392.79 334.145,398.79 338,404.5C 338.822,407.117 339.322,409.784 339.5,412.5C 337.473,412.662 335.473,412.495 333.5,412C 315.648,405.605 297.648,399.605 279.5,394C 270.829,391.998 262.162,389.998 253.5,388C 226.124,385.71 213.957,398.21 217,425.5C 220.952,434.248 227.452,440.414 236.5,444C 259.612,449.428 281.945,447.094 303.5,437C 305.473,436.505 307.473,436.338 309.5,436.5C 309.911,440.463 309.078,444.13 307,447.5C 295.755,460.758 284.422,474.092 273,487.5C 271.293,489.909 270.46,492.575 270.5,495.5C 279.363,496.171 288.196,497.171 297,498.5C 300.129,498.671 302.963,497.838 305.5,496C 322.118,478.397 335.952,458.897 347,437.5C 348.487,435.015 350.321,432.848 352.5,431C 362.19,430.104 371.523,427.77 380.5,424C 394.565,422.511 408.232,424.178 421.5,429C 424.167,429.667 426.833,429.667 429.5,429C 444.351,420.076 458.685,410.41 472.5,400C 453.23,394.849 433.896,390.016 414.5,385.5C 415.744,380.744 418.41,376.91 422.5,374C 440.318,364.258 457.318,353.258 473.5,341C 486.474,329.371 495.307,315.204 500,298.5C 502.959,281.715 496.126,272.048 479.5,269.5C 467.24,272.074 457.074,278.074 449,287.5C 431.923,307.32 418.923,329.654 410,354.5C 409.221,355.728 408.221,356.728 407,357.5C 399.861,348.697 391.695,340.863 382.5,334C 378.901,332.691 375.401,331.191 372,329.5C 374.242,295.204 386.742,265.371 409.5,240C 414.001,237.584 418.334,234.917 422.5,232C 427.747,230.928 432.747,229.428 437.5,227.5 Z"/></g>
<g><path style="opacity:0.873" fill="#fefffe" d="M 213.5,256.5 C 219.705,257.066 225.705,258.566 231.5,261C 241.987,266.074 252.653,270.907 263.5,275.5C 271.466,282.705 271.466,289.871 263.5,297C 259.5,297.667 255.5,297.667 251.5,297C 237.38,290.774 223.38,284.274 209.5,277.5C 206.674,273.608 205.841,269.275 207,264.5C 209.054,261.626 211.221,258.959 213.5,256.5 Z"/></g>
<g><path style="opacity:0.902" fill="#fefffe" d="M 795.5,324.5 C 810.99,324.118 815.49,331.118 809,345.5C 796.654,365.533 784.32,385.533 772,405.5C 769.833,407.667 767.667,409.833 765.5,412C 757.992,415.842 752.159,414.009 748,406.5C 747.333,403.5 747.333,400.5 748,397.5C 754.53,387.766 760.53,377.766 766,367.5C 775.866,353.072 785.699,338.738 795.5,324.5 Z"/></g>
<g><path style="opacity:0.932" fill="#fefffe" d="M 350.5,337.5 C 371.614,337.132 385.781,346.798 393,366.5C 404.021,393.3 395.521,409.467 367.5,415C 362.798,415.828 358.131,415.662 353.5,414.5C 349.218,401.154 344.051,388.154 338,375.5C 332.88,369.559 327.547,363.892 322,358.5C 321.587,354.812 322.754,351.646 325.5,349C 333.125,343.519 341.458,339.686 350.5,337.5 Z"/></g>
<g><path style="opacity:0.885" fill="#fefffe" d="M 853.5,388.5 C 865.502,388.062 870.668,393.729 869,405.5C 868.215,407.286 867.049,408.786 865.5,410C 843.736,423.815 822.07,437.815 800.5,452C 788.139,454.179 783.305,449.012 786,436.5C 787.598,431.901 790.765,429.068 795.5,428C 814.76,414.551 834.093,401.385 853.5,388.5 Z"/></g>
<g><path style="opacity:0.959" fill="#fefffe" d="M 512.5,499.5 C 526.742,498.616 540.408,500.949 553.5,506.5C 555.874,516.461 559.707,525.794 565,534.5C 573.846,545.753 585.512,551.086 600,550.5C 612.132,550.764 622.965,547.264 632.5,540C 636.057,535.939 640.057,532.439 644.5,529.5C 689.19,541.34 733.524,554.507 777.5,569C 784.712,573.924 788.379,580.757 788.5,589.5C 784.794,643.803 781.627,698.137 779,752.5C 777.662,776.573 775.662,800.573 773,824.5C 770.537,827.965 767.704,831.131 764.5,834C 759.859,835.951 755.193,837.951 750.5,840C 730.688,847.078 711.022,854.411 691.5,862C 687.368,863.9 683.034,864.733 678.5,864.5C 677.909,855.521 677.576,846.521 677.5,837.5C 679.676,761.167 681.843,684.834 684,608.5C 690.814,607.503 697.647,606.336 704.5,605C 720.001,600.056 735.334,594.722 750.5,589C 751.833,588 753.167,587 754.5,586C 746.909,582.436 738.909,580.769 730.5,581C 663.484,600.952 596.484,620.785 529.5,640.5C 528.832,600.596 527.832,560.762 526.5,521C 522.878,519.291 519.211,519.291 515.5,521C 486.333,529.055 457.333,537.722 428.5,547C 424.499,547.834 420.499,548.667 416.5,549.5C 414.681,549.658 413.348,548.991 412.5,547.5C 426.988,529.079 445.654,516.912 468.5,511C 483.311,507.221 497.978,503.387 512.5,499.5 Z"/></g>
<g><path style="opacity:0.969" fill="#fefffe" d="M 222.5,583.5 C 248.474,591.436 274.474,599.269 300.5,607C 306.351,608.673 312.018,610.839 317.5,613.5C 319.684,697.151 320.684,780.818 320.5,864.5C 313.784,863.148 307.451,860.648 301.5,857C 280.863,848.685 260.197,840.351 239.5,832C 234.888,828.385 231.388,823.885 229,818.5C 224.872,746.531 221.372,674.531 218.5,602.5C 218.667,598.167 218.833,593.833 219,589.5C 219.424,586.975 220.59,584.975 222.5,583.5 Z"/></g>
<g><path style="opacity:0.981" fill="#fefffe" d="M 378.5,631.5 C 416.977,643.786 455.644,655.453 494.5,666.5C 533.623,655.097 572.623,643.43 611.5,631.5C 612.663,718.835 612.663,806.169 611.5,893.5C 581.635,905.596 551.635,917.43 521.5,929C 513.311,932.285 504.811,934.119 496,934.5C 487.934,933.701 480.101,931.868 472.5,929C 441.88,915.462 411.046,902.295 380,889.5C 378.619,803.507 378.119,717.507 378.5,631.5 Z M 491.5,688.5 C 495.911,688.021 500.078,688.688 504,690.5C 503.224,704.165 503.39,717.832 504.5,731.5C 504.618,739.343 503.952,747.009 502.5,754.5C 504.271,772.788 504.938,791.121 504.5,809.5C 503.5,809.5 502.5,809.5 501.5,809.5C 501.5,818.167 501.5,826.833 501.5,835.5C 502.5,835.5 503.5,835.5 504.5,835.5C 503.826,856.827 503.492,878.16 503.5,899.5C 501.089,899.137 499.589,900.137 499,902.5C 497.333,899.833 495.667,899.833 494,902.5C 492.667,901.833 491.333,901.167 490,900.5C 487.838,888.8 488.004,877.134 490.5,865.5C 488.449,823.528 487.949,781.528 489,739.5C 490.023,735.068 490.523,730.568 490.5,726C 489.577,714.174 489.41,702.341 490,690.5C 490.717,689.956 491.217,689.289 491.5,688.5 Z"/></g>
</svg>
